<?xml version="1.0" encoding="UTF-8"?>
<svg xmlns="http://www.w3.org/2000/svg" style="stroke-linejoin:bevel;stroke:#000000;stroke-linecap:square;fill:none" viewBox="166.1280059814453 26.416000366210938 82.14399719238281 31.231998443603516"><g id="g4181" font-size="11" stroke-miterlimit="2" font-weight="400">
      <g id="g434" transform="matrix(1.184 0 0 1.184 207.2 36.704)" style="stroke-linejoin:miter;stroke:#000000;stroke-linecap:square;stroke-miterlimit:2;fill:#ffffff">
        <path id="path436" style="fill-rule:evenodd;fill:#ffffff" xmlns:inkscape="http://www.inkscape.org/namespaces/inkscape" inkscape:connector-curvature="0" d="m-33-7h66v23h-66v-23"/>
      </g>
      <g id="g442" transform="matrix(1.184 0 0 1.184 207.2 36.704)" style="stroke-linejoin:miter;stroke:#000000;stroke-linecap:square;stroke-miterlimit:2;fill:none">
        <path id="path444" xmlns:inkscape="http://www.inkscape.org/namespaces/inkscape" inkscape:connector-curvature="0" d="m-30-4h15v17h-15v-17"/>
      </g>
      <g id="g446" transform="matrix(1.184 0 0 1.184 207.2 36.704)" style="stroke-linejoin:miter;stroke:#000000;stroke-linecap:square;stroke-miterlimit:2;fill:none">
        <path id="path448" xmlns:inkscape="http://www.inkscape.org/namespaces/inkscape" inkscape:connector-curvature="0" d="m15-4h15v17h-15v-17"/>
      </g>
      <g id="g450" transform="matrix(1.184 0 0 1.184 207.2 36.704)" style="stroke-linejoin:miter;stroke:#000000;stroke-linecap:square;stroke-miterlimit:2;fill:none">
        <path id="path452" xmlns:inkscape="http://www.inkscape.org/namespaces/inkscape" inkscape:connector-curvature="0" d="m0-4h15v17h-15v-17"/>
      </g>
      <g id="g454" transform="matrix(1.184 0 0 1.184 207.2 36.704)" style="stroke-linejoin:miter;stroke:#000000;stroke-linecap:square;stroke-miterlimit:2;fill:none">
        <path id="path456" xmlns:inkscape="http://www.inkscape.org/namespaces/inkscape" inkscape:connector-curvature="0" d="m-15-4h15v17h-15v-17"/>
      </g>
    </g></svg>