<?xml version="1.0" encoding="UTF-8"?>
<svg xmlns="http://www.w3.org/2000/svg" style="stroke-linejoin:bevel;stroke:#000000;stroke-linecap:square;fill:none" viewBox="273.87200927734375 21.68000030517578 32.415985107421875 32.41600036621094"><g id="g4193" font-size="11" font-weight="400">
      <g id="g1062" style="stroke-linejoin:bevel;stroke:#000000;stroke-linecap:square;fill:#ffffff" transform="matrix(1.184 0 0 1.184 290.08 24.864)">
        <path id="path1064" style="fill-rule:evenodd;fill:#ffffff" xmlns:inkscape="http://www.inkscape.org/namespaces/inkscape" inkscape:connector-curvature="0" d="m-12-1v24h24v-24h-24"/>
      </g>
      <g id="g1030" transform="matrix(1.184 0 0 1.184 290.08 24.864)" style="stroke-linejoin:miter;stroke:#000000;stroke-linecap:square;stroke-miterlimit:2;fill:none" stroke-miterlimit="2">
        <polyline id="polyline1032" style="fill:none" points="-2 18 2 14"/>
      </g>
      <g id="g1034" transform="matrix(1.184 0 0 1.184 290.08 24.864)" style="stroke-linejoin:miter;stroke:#000000;stroke-linecap:square;stroke-miterlimit:2;fill:none" stroke-miterlimit="2">
        <polyline id="polyline1036" style="fill:none" points="-2 14 2 18"/>
      </g>
      <g id="g1038" transform="matrix(1.184 0 0 1.184 290.08 24.864)" style="stroke-linejoin:miter;stroke:#000000;stroke-linecap:square;stroke-miterlimit:2;fill:none" stroke-miterlimit="2">
        <polyline id="polyline1040" style="fill:none" points="-3 16 3 16"/>
      </g>
      <g id="g1042" transform="matrix(1.184 0 0 1.184 290.08 24.864)" style="stroke-linejoin:miter;stroke:#000000;stroke-linecap:square;stroke-miterlimit:2;fill:none" stroke-miterlimit="2">
        <polyline id="polyline1044" style="fill:none" points="0 13 0 19"/>
      </g>
      <g id="g1046" transform="matrix(1.184 0 0 1.184 290.08 24.864)" style="stroke-linejoin:miter;stroke:#000000;stroke-linecap:square;stroke-miterlimit:2;fill:none" stroke-miterlimit="2">
        <path id="path1048" xmlns:inkscape="http://www.inkscape.org/namespaces/inkscape" inkscape:connector-curvature="0" d="m-12-1h6v6h-6v-6"/>
      </g>
      <g id="g1050" transform="matrix(1.184 0 0 1.184 290.08 24.864)" style="stroke-linejoin:miter;stroke:#000000;stroke-linecap:square;stroke-miterlimit:2;fill:none" stroke-miterlimit="2">
        <path id="path1052" xmlns:inkscape="http://www.inkscape.org/namespaces/inkscape" inkscape:connector-curvature="0" d="m6-1h6v6h-6v-6"/>
      </g>
      <g id="g1054" transform="matrix(1.184 0 0 1.184 290.08 24.864)" style="stroke-linejoin:miter;stroke:#000000;stroke-linecap:square;stroke-miterlimit:2;fill:none" stroke-miterlimit="2">
        <path id="path1056" xmlns:inkscape="http://www.inkscape.org/namespaces/inkscape" inkscape:connector-curvature="0" d="m0-1h6v6h-6v-6"/>
      </g>
      <g id="g1058" transform="matrix(1.184 0 0 1.184 290.08 24.864)" style="stroke-linejoin:miter;stroke:#000000;stroke-linecap:square;stroke-miterlimit:2;fill:none" stroke-miterlimit="2">
        <path id="path1060" xmlns:inkscape="http://www.inkscape.org/namespaces/inkscape" inkscape:connector-curvature="0" d="m-6-1h6v6h-6v-6"/>
      </g>
    </g></svg>