<?xml version="1.0" encoding="UTF-8"?>
<svg xmlns="http://www.w3.org/2000/svg" style="stroke-linejoin:bevel;stroke:#000000;stroke-linecap:square;fill:none" viewBox="321.2320251464844 21.68000030517578 32.415985107421875 32.41600036621094"><g id="g4213" font-size="11" font-weight="400">
      <g id="g1170" style="stroke-linejoin:bevel;stroke:#000000;stroke-linecap:square;fill:#ffffff" transform="matrix(1.184 0 0 1.184 337.44 24.864)">
        <path id="path1172" style="fill-rule:evenodd;fill:#ffffff" xmlns:inkscape="http://www.inkscape.org/namespaces/inkscape" inkscape:connector-curvature="0" d="m-12-1v24h24v-24h-24"/>
      </g>
      <g id="g1138" style="stroke-linejoin:bevel;stroke:#000000;stroke-linecap:square;fill:none" transform="matrix(1.184 0 0 1.184 337.44 24.864)">
        <path id="path1140" xmlns:inkscape="http://www.inkscape.org/namespaces/inkscape" inkscape:connector-curvature="0" d="m-5.4982 16.585c-1.1046 0-2-0.8954-2-2s0.89543-2 2-2"/>
      </g>
      <g id="g1142" transform="matrix(1.184 0 0 1.184 337.44 24.864)" style="stroke-linejoin:miter;stroke:#000000;stroke-linecap:square;stroke-miterlimit:2;fill:none" stroke-miterlimit="2">
        <polyline id="polyline1144" style="fill:none" points="4.9763 12.56 -5.0236 16.56"/>
      </g>
      <g id="g1146" transform="matrix(1.184 0 0 1.184 337.44 24.864)" style="stroke-linejoin:miter;stroke:#000000;stroke-linecap:square;stroke-miterlimit:2;fill:none" stroke-miterlimit="2">
        <polyline id="polyline1148" style="fill:none" points="-5.0236 12.56 4.9763 16.56"/>
      </g>
      <g id="g1150" style="stroke-linejoin:bevel;stroke:#000000;stroke-linecap:square;fill:none" transform="matrix(1.184 0 0 1.184 337.44 24.864)">
        <path id="path1152" xmlns:inkscape="http://www.inkscape.org/namespaces/inkscape" inkscape:connector-curvature="0" d="m5.561 12.585c1.1046 0 2 0.8954 2 2s-0.89543 2-2 2"/>
      </g>
      <g id="g1154" transform="matrix(1.184 0 0 1.184 337.44 24.864)" style="stroke-linejoin:miter;stroke:#000000;stroke-linecap:square;stroke-miterlimit:2;fill:none" stroke-miterlimit="2">
        <path id="path1156" xmlns:inkscape="http://www.inkscape.org/namespaces/inkscape" inkscape:connector-curvature="0" d="m-12-1h6v6h-6v-6"/>
      </g>
      <g id="g1158" transform="matrix(1.184 0 0 1.184 337.44 24.864)" style="stroke-linejoin:miter;stroke:#000000;stroke-linecap:square;stroke-miterlimit:2;fill:none" stroke-miterlimit="2">
        <path id="path1160" xmlns:inkscape="http://www.inkscape.org/namespaces/inkscape" inkscape:connector-curvature="0" d="m6-1h6v6h-6v-6"/>
      </g>
      <g id="g1162" transform="matrix(1.184 0 0 1.184 337.44 24.864)" style="stroke-linejoin:miter;stroke:#000000;stroke-linecap:square;stroke-miterlimit:2;fill:none" stroke-miterlimit="2">
        <path id="path1164" xmlns:inkscape="http://www.inkscape.org/namespaces/inkscape" inkscape:connector-curvature="0" d="m0-1h6v6h-6v-6"/>
      </g>
      <g id="g1166" transform="matrix(1.184 0 0 1.184 337.44 24.864)" style="stroke-linejoin:miter;stroke:#000000;stroke-linecap:square;stroke-miterlimit:2;fill:none" stroke-miterlimit="2">
        <path id="path1168" xmlns:inkscape="http://www.inkscape.org/namespaces/inkscape" inkscape:connector-curvature="0" d="m-6-1h6v6h-6v-6"/>
      </g>
    </g></svg>