<?xml version="1.0" encoding="UTF-8"?>
<svg xmlns="http://www.w3.org/2000/svg" style="stroke-linejoin:bevel;stroke:#000000;stroke-linecap:square;fill:none" viewBox="179.15200805664062 92.72100067138672 32.41600036621094 32.41600036621094"><g id="g4243" font-size="11" font-weight="400">
      <g id="g310" style="stroke-linejoin:bevel;stroke:#000000;stroke-linecap:square;fill:#ffffff" transform="matrix(1.184 0 0 1.184 195.36 95.905)">
        <path id="path312" style="fill-rule:evenodd;fill:#ffffff" xmlns:inkscape="http://www.inkscape.org/namespaces/inkscape" inkscape:connector-curvature="0" d="m-12-1v24h24v-24h-24"/>
      </g>
      <g id="g298" transform="matrix(1.184 0 0 1.184 195.36 95.905)" style="stroke-linejoin:miter;stroke:#000000;stroke-linecap:square;stroke-miterlimit:2;fill:none" stroke-miterlimit="2">
        <polyline id="polyline300" style="fill:none" points="6 4 8 2"/>
      </g>
      <g id="g302" transform="matrix(1.184 0 0 1.184 195.36 95.905)" style="stroke-linejoin:miter;stroke:#000000;stroke-linecap:square;stroke-miterlimit:2;fill:none" stroke-miterlimit="2">
        <path id="path304" xmlns:inkscape="http://www.inkscape.org/namespaces/inkscape" inkscape:connector-curvature="0" d="m-12-1h24v8h-24v-8"/>
      </g>
      <g id="g306" transform="matrix(1.184 0 0 1.184 195.36 95.905)" style="stroke-linejoin:miter;stroke:#000000;stroke-linecap:square;stroke-miterlimit:2;fill:none" stroke-miterlimit="2">
        <polyline id="polyline308" style="fill:none" points="6 2 8 4"/>
      </g>
      <g id="g314" transform="matrix(1.184 0 0 1.184 195.36 95.905)" style="stroke-linejoin:miter;stroke:#000000;stroke-linecap:square;stroke-miterlimit:2;fill:none" stroke-miterlimit="2">
        <polyline id="polyline316" style="fill:none" points="5 3 9 3"/>
      </g>
      <g id="g318" transform="matrix(1.184 0 0 1.184 195.36 95.905)" style="stroke-linejoin:miter;stroke:#000000;stroke-linecap:square;stroke-miterlimit:2;fill:none" stroke-miterlimit="2">
        <polyline id="polyline320" style="fill:none" points="-8 4 -6 2"/>
      </g>
      <g id="g322" transform="matrix(1.184 0 0 1.184 195.36 95.905)" style="stroke-linejoin:miter;stroke:#000000;stroke-linecap:square;stroke-miterlimit:2;fill:none" stroke-miterlimit="2">
        <polyline id="polyline324" style="fill:none" points="7 1 7 5"/>
      </g>
      <g id="g326" transform="matrix(1.184 0 0 1.184 195.36 95.905)" style="stroke-linejoin:miter;stroke:#000000;stroke-linecap:square;stroke-miterlimit:2;fill:none" stroke-miterlimit="2">
        <polyline id="polyline328" style="fill:none" points="-8 2 -6 4"/>
      </g>
      <g id="g330" transform="matrix(1.184 0 0 1.184 195.36 95.905)" style="stroke-linejoin:miter;stroke:#000000;stroke-linecap:square;stroke-miterlimit:2;fill:none" stroke-miterlimit="2">
        <polyline id="polyline332" style="fill:none" points="-9 3 -5 3"/>
      </g>
      <g id="g334" transform="matrix(1.184 0 0 1.184 195.36 95.905)" style="stroke-linejoin:miter;stroke:#000000;stroke-linecap:square;stroke-miterlimit:2;fill:none" stroke-miterlimit="2">
        <polyline id="polyline336" style="fill:none" points="-7 1 -7 5"/>
      </g>
      <g id="g338" transform="matrix(1.184 0 0 1.184 195.36 95.905)" style="stroke-linejoin:miter;stroke:#000000;stroke-linecap:square;stroke-miterlimit:2;fill:none" stroke-miterlimit="2">
        <polyline id="polyline340" style="fill:none" points="-1 4 1 2"/>
      </g>
      <g id="g342" transform="matrix(1.184 0 0 1.184 195.36 95.905)" style="stroke-linejoin:miter;stroke:#000000;stroke-linecap:square;stroke-miterlimit:2;fill:none" stroke-miterlimit="2">
        <polyline id="polyline344" style="fill:none" points="-2 18 2 14"/>
      </g>
      <g id="g346" transform="matrix(1.184 0 0 1.184 195.36 95.905)" style="stroke-linejoin:miter;stroke:#000000;stroke-linecap:square;stroke-miterlimit:2;fill:none" stroke-miterlimit="2">
        <polyline id="polyline348" style="fill:none" points="-1 2 1 4"/>
      </g>
      <g id="g350" transform="matrix(1.184 0 0 1.184 195.36 95.905)" style="stroke-linejoin:miter;stroke:#000000;stroke-linecap:square;stroke-miterlimit:2;fill:none" stroke-miterlimit="2">
        <polyline id="polyline352" style="fill:none" points="-2 14 2 18"/>
      </g>
      <g id="g354" transform="matrix(1.184 0 0 1.184 195.36 95.905)" style="stroke-linejoin:miter;stroke:#000000;stroke-linecap:square;stroke-miterlimit:2;fill:none" stroke-miterlimit="2">
        <polyline id="polyline356" style="fill:none" points="-2.0593 3 1.9406 3"/>
      </g>
      <g id="g358" transform="matrix(1.184 0 0 1.184 195.36 95.905)" style="stroke-linejoin:miter;stroke:#000000;stroke-linecap:square;stroke-miterlimit:2;fill:none" stroke-miterlimit="2">
        <polyline id="polyline360" style="fill:none" points="-3 16 3 16"/>
      </g>
      <g id="g362" transform="matrix(1.184 0 0 1.184 195.36 95.905)" style="stroke-linejoin:miter;stroke:#000000;stroke-linecap:square;stroke-miterlimit:2;fill:none" stroke-miterlimit="2">
        <polyline id="polyline364" style="fill:none" points="0 1 0 5"/>
      </g>
      <g id="g366" transform="matrix(1.184 0 0 1.184 195.36 95.905)" style="stroke-linejoin:miter;stroke:#000000;stroke-linecap:square;stroke-miterlimit:2;fill:none" stroke-miterlimit="2">
        <polyline id="polyline368" style="fill:none" points="0 13 0 19"/>
      </g>
    </g></svg>