<?xml version="1.0" encoding="UTF-8"?>
<svg xmlns="http://www.w3.org/2000/svg" style="stroke-linejoin:bevel;stroke:#000000;stroke-linecap:square;fill:none" viewBox="60.75300216674805 92.72100067138672 32.41599655151367 32.41600036621094"><g id="g4345" font-size="11" font-weight="400">
      <g id="g46" style="stroke-linejoin:bevel;stroke:#000000;stroke-linecap:square;fill:#ffffff" transform="matrix(1.184 0 0 1.184 76.961 95.905)">
        <path id="path48" style="fill-rule:evenodd;fill:#ffffff" xmlns:inkscape="http://www.inkscape.org/namespaces/inkscape" inkscape:connector-curvature="0" d="m-12-1v24h24v-24h-24"/>
      </g>
      <g id="g38" transform="matrix(1.184 0 0 1.184 76.961 95.905)" style="stroke-linejoin:miter;stroke:#000000;stroke-linecap:square;stroke-miterlimit:2;fill:none" stroke-miterlimit="2">
        <polyline id="polyline40" style="fill:none" points="-2 17 2 13"/>
      </g>
      <g id="g42" transform="matrix(1.184 0 0 1.184 76.961 95.905)" style="stroke-linejoin:miter;stroke:#000000;stroke-linecap:square;stroke-miterlimit:2;fill:none" stroke-miterlimit="2">
        <polyline id="polyline44" style="fill:none" points="5 12 9 8"/>
      </g>
      <g id="g50" transform="matrix(1.184 0 0 1.184 76.961 95.905)" style="stroke-linejoin:miter;stroke:#000000;stroke-linecap:square;stroke-miterlimit:2;fill:none" stroke-miterlimit="2">
        <polyline id="polyline52" style="fill:none" points="-2 13 2 17"/>
      </g>
      <g id="g54" transform="matrix(1.184 0 0 1.184 76.961 95.905)" style="stroke-linejoin:miter;stroke:#000000;stroke-linecap:square;stroke-miterlimit:2;fill:none" stroke-miterlimit="2">
        <polyline id="polyline56" style="fill:none" points="5 8 9 12"/>
      </g>
      <g id="g58" transform="matrix(1.184 0 0 1.184 76.961 95.905)" style="stroke-linejoin:miter;stroke:#000000;stroke-linecap:square;stroke-miterlimit:2;fill:none" stroke-miterlimit="2">
        <polyline id="polyline60" style="fill:none" points="-9 12 -5 8"/>
      </g>
      <g id="g62" transform="matrix(1.184 0 0 1.184 76.961 95.905)" style="stroke-linejoin:miter;stroke:#000000;stroke-linecap:square;stroke-miterlimit:2;fill:none" stroke-miterlimit="2">
        <polyline id="polyline64" style="fill:none" points="-3 15 3 15"/>
      </g>
      <g id="g66" transform="matrix(1.184 0 0 1.184 76.961 95.905)" style="stroke-linejoin:miter;stroke:#000000;stroke-linecap:square;stroke-miterlimit:2;fill:none" stroke-miterlimit="2">
        <polyline id="polyline68" style="fill:none" points="4 10 10 10"/>
      </g>
      <g id="g70" transform="matrix(1.184 0 0 1.184 76.961 95.905)" style="stroke-linejoin:miter;stroke:#000000;stroke-linecap:square;stroke-miterlimit:2;fill:none" stroke-miterlimit="2">
        <polyline id="polyline72" style="fill:none" points="-9 8 -5 12"/>
      </g>
      <g id="g74" transform="matrix(1.184 0 0 1.184 76.961 95.905)" style="stroke-linejoin:miter;stroke:#000000;stroke-linecap:square;stroke-miterlimit:2;fill:none" stroke-miterlimit="2">
        <polyline id="polyline76" style="fill:none" points="0 12 0 18"/>
      </g>
      <g id="g78" transform="matrix(1.184 0 0 1.184 76.961 95.905)" style="stroke-linejoin:miter;stroke:#000000;stroke-linecap:square;stroke-miterlimit:2;fill:none" stroke-miterlimit="2">
        <polyline id="polyline80" style="fill:none" points="7 7 7 13"/>
      </g>
      <g id="g82" transform="matrix(1.184 0 0 1.184 76.961 95.905)" style="stroke-linejoin:miter;stroke:#000000;stroke-linecap:square;stroke-miterlimit:2;fill:none" stroke-miterlimit="2">
        <polyline id="polyline84" style="fill:none" points="-10 10 -4 10"/>
      </g>
      <g id="g86" transform="matrix(1.184 0 0 1.184 76.961 95.905)" style="stroke-linejoin:miter;stroke:#000000;stroke-linecap:square;stroke-miterlimit:2;fill:none" stroke-miterlimit="2">
        <polyline id="polyline88" style="fill:none" points="-7 7 -7 13"/>
      </g>
    </g></svg>