<?xml version="1.0" encoding="UTF-8"?>
<svg xmlns="http://www.w3.org/2000/svg" style="stroke-linejoin:bevel;stroke:#000000;stroke-linecap:square;fill:none" viewBox="18.821001052856445 92.72100067138672 32.415998458862305 32.41600036621094"><g id="g4373" font-size="11" font-weight="400">
      <g id="g4301" style="stroke-linejoin:bevel;stroke:#000000;stroke-linecap:square;fill:#ffffff" transform="matrix(1.184 0 0 1.184 35.029 95.905)">
        <path id="path4303" style="fill:#ffffff" xmlns:inkscape="http://www.inkscape.org/namespaces/inkscape" inkscape:connector-curvature="0" d="m-12-1v24h24v-24h-24"/>
      </g>
      <g id="g4293" style="stroke-linejoin:miter;stroke:#000000;stroke-linecap:square;stroke-miterlimit:2;fill:none" transform="matrix(1.184 0 0 1.184 35.029 89.985)" stroke-miterlimit="2">
        <polyline id="polyline4295" style="fill:none" points="-2 17 2 13"/>
      </g>
      <g id="g4297" style="stroke-linejoin:miter;stroke:#000000;stroke-linecap:square;stroke-miterlimit:2;fill:none" transform="matrix(1.184 0 0 1.184 35.029 95.905)" stroke-miterlimit="2">
        <polyline id="polyline4299" style="fill:none" points="5 12 9 8"/>
      </g>
      <g id="g4305" style="stroke-linejoin:miter;stroke:#000000;stroke-linecap:square;stroke-miterlimit:2;fill:none" transform="matrix(1.184 0 0 1.184 35.029 89.985)" stroke-miterlimit="2">
        <polyline id="polyline4307" style="fill:none" points="-2 13 2 17"/>
      </g>
      <g id="g4309" style="stroke-linejoin:miter;stroke:#000000;stroke-linecap:square;stroke-miterlimit:2;fill:none" transform="matrix(1.184 0 0 1.184 35.029 95.905)" stroke-miterlimit="2">
        <polyline id="polyline4311" style="fill:none" points="5 8 9 12"/>
      </g>
      <g id="g4313" style="stroke-linejoin:miter;stroke:#000000;stroke-linecap:square;stroke-miterlimit:2;fill:none" transform="matrix(1.184 0 0 1.184 35.029 95.905)" stroke-miterlimit="2">
        <polyline id="polyline4315" style="fill:none" points="-9 12 -5 8"/>
      </g>
      <g id="g4317" style="stroke-linejoin:miter;stroke:#000000;stroke-linecap:square;stroke-miterlimit:2;fill:none" transform="matrix(1.184 0 0 1.184 35.029 89.985)" stroke-miterlimit="2">
        <polyline id="polyline4319" style="fill:none" points="-3 15 3 15"/>
      </g>
      <g id="g4321" style="stroke-linejoin:miter;stroke:#000000;stroke-linecap:square;stroke-miterlimit:2;fill:none" transform="matrix(1.184 0 0 1.184 35.029 95.905)" stroke-miterlimit="2">
        <polyline id="polyline4323" style="fill:none" points="4 10 10 10"/>
      </g>
      <g id="g4325" style="stroke-linejoin:miter;stroke:#000000;stroke-linecap:square;stroke-miterlimit:2;fill:none" transform="matrix(1.184 0 0 1.184 35.029 95.905)" stroke-miterlimit="2">
        <polyline id="polyline4327" style="fill:none" points="-9 8 -5 12"/>
      </g>
      <g id="g4329" style="stroke-linejoin:miter;stroke:#000000;stroke-linecap:square;stroke-miterlimit:2;fill:none" transform="matrix(1.184 0 0 1.184 35.029 89.985)" stroke-miterlimit="2">
        <polyline id="polyline4331" style="fill:none" points="0 12 0 18"/>
      </g>
      <g id="g4333" style="stroke-linejoin:miter;stroke:#000000;stroke-linecap:square;stroke-miterlimit:2;fill:none" transform="matrix(1.184 0 0 1.184 35.029 95.905)" stroke-miterlimit="2">
        <polyline id="polyline4335" style="fill:none" points="7 7 7 13"/>
      </g>
      <g id="g4337" style="stroke-linejoin:miter;stroke:#000000;stroke-linecap:square;stroke-miterlimit:2;fill:none" transform="matrix(1.184 0 0 1.184 35.029 95.905)" stroke-miterlimit="2">
        <polyline id="polyline4339" style="fill:none" points="-10 10 -4 10"/>
      </g>
      <g id="g4341" style="stroke-linejoin:miter;stroke:#000000;stroke-linecap:square;stroke-miterlimit:2;fill:none" transform="matrix(1.184 0 0 1.184 35.029 95.905)" stroke-miterlimit="2">
        <polyline id="polyline4343" style="fill:none" points="-7 7 -7 13"/>
      </g>
    </g></svg>