<?xml version="1.0" encoding="UTF-8"?>
<svg xmlns="http://www.w3.org/2000/svg" style="stroke-linejoin:bevel;stroke:#000000;stroke-linecap:square;fill:none" viewBox="60.75300216674805 175.6060028076172 32.41599655151367 32.41600036621094"><g id="g4431" font-size="11" font-weight="400">
      <g id="g98" style="stroke-linejoin:bevel;stroke:#000000;stroke-linecap:square;fill:#ffffff" transform="matrix(1.184 0 0 1.184 76.961 178.79)">
        <path id="path100" style="fill-rule:evenodd;fill:#ffffff" xmlns:inkscape="http://www.inkscape.org/namespaces/inkscape" inkscape:connector-curvature="0" d="m-12-1v24h24v-24h-24"/>
      </g>
      <g id="g94" style="stroke-linejoin:bevel;stroke:#000000;stroke-linecap:square;fill:#000000" transform="matrix(1.184 0 0 1.184 76.961 178.79)">
        <path id="path96" style="fill-rule:evenodd" xmlns:inkscape="http://www.inkscape.org/namespaces/inkscape" inkscape:connector-curvature="0" d="m-2.8377 16c0 1.7464-1.4158 3.1622-3.1622 3.1622-1.7465 0-3.1622-1.4158-3.1622-3.1622 0-1.7465 1.4158-3.1623 3.1622-3.1623 1.7465 0 3.1622 1.4158 3.1622 3.1623"/>
      </g>
      <g id="g102" style="stroke-linejoin:bevel;stroke:#000000;stroke-linecap:square;fill:#000000" transform="matrix(1.184 0 0 1.184 76.961 178.79)">
        <path id="path104" style="fill-rule:evenodd" xmlns:inkscape="http://www.inkscape.org/namespaces/inkscape" inkscape:connector-curvature="0" d="m9.1622 16c0 1.7464-1.4158 3.1622-3.1622 3.1622-1.7465 0-3.1622-1.4158-3.1622-3.1622 0-1.7465 1.4158-3.1623 3.1622-3.1623 1.7465 0 3.1622 1.4158 3.1622 3.1623"/>
      </g>
      <g id="g106" style="stroke-linejoin:bevel;stroke:#000000;stroke-linecap:square;fill:#000000" transform="matrix(1.184 0 0 1.184 76.961 178.79)">
        <path id="path108" style="fill-rule:evenodd" xmlns:inkscape="http://www.inkscape.org/namespaces/inkscape" inkscape:connector-curvature="0" d="m-2.8377 6c0 1.7465-1.4158 3.1622-3.1622 3.1622-1.7465 0-3.1622-1.4158-3.1622-3.1622 0-1.7465 1.4158-3.1622 3.1622-3.1622 1.7465 0 3.1622 1.4158 3.1622 3.1622"/>
      </g>
      <g id="g110" style="stroke-linejoin:bevel;stroke:#000000;stroke-linecap:square;fill:#000000" transform="matrix(1.184 0 0 1.184 76.961 178.79)">
        <path id="path112" style="fill-rule:evenodd" xmlns:inkscape="http://www.inkscape.org/namespaces/inkscape" inkscape:connector-curvature="0" d="m9.1622 6c0 1.7465-1.4158 3.1622-3.1622 3.1622-1.7465 0-3.1622-1.4158-3.1622-3.1622 0-1.7465 1.4158-3.1622 3.1622-3.1622 1.7465 0 3.1622 1.4158 3.1622 3.1622"/>
      </g>
    </g></svg>