<?xml version="1.0" encoding="UTF-8"?>
<svg xmlns="http://www.w3.org/2000/svg" style="stroke-linejoin:bevel;stroke:#000000;stroke-linecap:square;fill:none" viewBox="226.5120086669922 175.481201171875 32.41600036621094 32.41600036621094"><g id="g4463" font-size="11" font-weight="400">
      <g id="g134" style="stroke-linejoin:bevel;stroke:#000000;stroke-linecap:square;fill:#ffffff" transform="matrix(1.184 0 0 1.184 242.72 178.79)">
        <path id="path136" style="fill-rule:evenodd;fill:#ffffff" xmlns:inkscape="http://www.inkscape.org/namespaces/inkscape" inkscape:connector-curvature="0" d="m-12-1.1054v24h24v-24h-24"/>
      </g>
      <g id="g138" transform="matrix(1.184 0 0 1.184 242.72 178.79)" style="stroke-linejoin:miter;stroke:#000000;stroke-linecap:square;stroke-miterlimit:2;fill:none" stroke-miterlimit="2">
        <polyline id="polyline140" style="fill:none" points="-5 5 5 10"/>
      </g>
      <g id="g142" style="stroke-linejoin:bevel;stroke:#000000;stroke-linecap:square;fill:none" transform="matrix(1.184 0 0 1.184 242.72 178.79)">
        <path id="path144" xmlns:inkscape="http://www.inkscape.org/namespaces/inkscape" inkscape:connector-curvature="0" d="m8 7.5c0 1.3807-1.1193 2.5-2.5 2.5"/>
      </g>
      <g id="g146" transform="matrix(1.184 0 0 1.184 242.72 178.79)" style="stroke-linejoin:miter;stroke:#000000;stroke-linecap:square;stroke-miterlimit:2;fill:none" stroke-miterlimit="2">
        <polyline id="polyline148" style="fill:none" points="-5 13 5 18"/>
      </g>
      <g id="g150" transform="matrix(1.184 0 0 1.184 242.72 178.79)" style="stroke-linejoin:miter;stroke:#000000;stroke-linecap:square;stroke-miterlimit:2;fill:none" stroke-miterlimit="2">
        <polyline id="polyline152" style="fill:none" points="-5 9 5 14"/>
      </g>
      <g id="g154" style="stroke-linejoin:bevel;stroke:#000000;stroke-linecap:square;fill:none" transform="matrix(1.184 0 0 1.184 242.72 178.79)">
        <path id="path156" xmlns:inkscape="http://www.inkscape.org/namespaces/inkscape" inkscape:connector-curvature="0" d="m-8 7.5c0-1.3807 1.1193-2.5 2.5-2.5"/>
      </g>
      <g id="g158" style="stroke-linejoin:bevel;stroke:#000000;stroke-linecap:square;fill:none" transform="matrix(1.184 0 0 1.184 242.72 178.79)">
        <path id="path160" xmlns:inkscape="http://www.inkscape.org/namespaces/inkscape" inkscape:connector-curvature="0" d="m8 15.394c0 1.3807-1.1193 2.5-2.5 2.5"/>
      </g>
      <g id="g162" style="stroke-linejoin:bevel;stroke:#000000;stroke-linecap:square;fill:none" transform="matrix(1.184 0 0 1.184 242.72 178.79)">
        <path id="path164" xmlns:inkscape="http://www.inkscape.org/namespaces/inkscape" inkscape:connector-curvature="0" d="m8 11.5c0 1.381-1.1193 2.5-2.5 2.5"/>
      </g>
      <g id="g166" style="stroke-linejoin:bevel;stroke:#000000;stroke-linecap:square;fill:none" transform="matrix(1.184 0 0 1.184 242.72 178.79)">
        <path id="path168" xmlns:inkscape="http://www.inkscape.org/namespaces/inkscape" inkscape:connector-curvature="0" d="m-8 15.394c0-1.3807 1.1193-2.5 2.5-2.5"/>
      </g>
      <g id="g170" style="stroke-linejoin:bevel;stroke:#000000;stroke-linecap:square;fill:none" transform="matrix(1.184 0 0 1.184 242.72 178.79)">
        <path id="path172" xmlns:inkscape="http://www.inkscape.org/namespaces/inkscape" inkscape:connector-curvature="0" d="m-8 11.5c0-1.381 1.1193-2.5 2.5-2.5"/>
      </g>
    </g></svg>