<?xml version="1.0" encoding="UTF-8"?>
<svg xmlns="http://www.w3.org/2000/svg" style="stroke-linejoin:bevel;stroke:#000000;stroke-linecap:square;fill:none" viewBox="226.5120086669922 246.64601135253906 32.41600036621094 32.41600036621094"><g id="g4505" font-size="11" font-weight="400">
      <g id="g474" style="stroke-linejoin:bevel;stroke:#000000;stroke-linecap:square;fill:#ffffff" transform="matrix(1.184 0 0 1.184 242.72 249.83)">
        <path id="path476" style="fill-rule:evenodd;fill:#ffffff" xmlns:inkscape="http://www.inkscape.org/namespaces/inkscape" inkscape:connector-curvature="0" d="m-12-1v24h24v-24h-24"/>
      </g>
      <g id="g458" style="stroke-linejoin:bevel;stroke:#000000;stroke-linecap:square;fill:none" transform="matrix(1.184 0 0 1.184 242.72 249.83)">
        <path id="path460" xmlns:inkscape="http://www.inkscape.org/namespaces/inkscape" inkscape:connector-curvature="0" d="m-5.4982 6.5849c-1.1046 0-2-0.89543-2-2s0.89543-2 2-2"/>
      </g>
      <g id="g462" transform="matrix(1.184 0 0 1.184 242.72 249.83)" style="stroke-linejoin:miter;stroke:#000000;stroke-linecap:square;stroke-miterlimit:2;fill:none" stroke-miterlimit="2">
        <polyline id="polyline464" style="fill:none" points="4.9763 2.5595 -5.0236 6.5595"/>
      </g>
      <g id="g466" transform="matrix(1.184 0 0 1.184 242.72 249.83)" style="stroke-linejoin:miter;stroke:#000000;stroke-linecap:square;stroke-miterlimit:2;fill:none" stroke-miterlimit="2">
        <polyline id="polyline468" style="fill:none" points="-5.0236 2.5595 4.9763 6.5595"/>
      </g>
      <g id="g470" style="stroke-linejoin:bevel;stroke:#000000;stroke-linecap:square;fill:#000000" transform="matrix(1.184 0 0 1.184 242.72 249.83)">
        <path id="path472" style="fill-rule:evenodd" xmlns:inkscape="http://www.inkscape.org/namespaces/inkscape" inkscape:connector-curvature="0" vector-effect="non-scaling-stroke" d="m2.5 16c0 1.3807-1.1193 2.5-2.5 2.5s-2.5-1.1193-2.5-2.5 1.1193-2.5 2.5-2.5 2.5 1.1193 2.5 2.5"/>
      </g>
      <g id="g482" style="stroke-linejoin:bevel;stroke:#000000;stroke-linecap:square;fill:none" transform="matrix(1.184 0 0 1.184 242.72 249.83)">
        <path id="path484" xmlns:inkscape="http://www.inkscape.org/namespaces/inkscape" inkscape:connector-curvature="0" d="m5.561 2.5849c1.1046 0 2 0.89543 2 2s-0.89543 2-2 2"/>
      </g>
    </g></svg>