<?xml version="1.0" encoding="UTF-8"?>
<svg xmlns="http://www.w3.org/2000/svg" style="stroke-linejoin:bevel;stroke:#000000;stroke-linecap:square;fill:none" viewBox="119.95201110839844 247.8300018310547 32.41600036621094 32.41600036621094"><g id="g4545" font-size="11" font-weight="400">
      <g id="g398" style="stroke-linejoin:bevel;stroke:#000000;stroke-linecap:square;fill:#ffffff" transform="matrix(1.184 0 0 1.184 136.16 249.83)">
        <path id="path400" style="fill-rule:evenodd;fill:#ffffff" xmlns:inkscape="http://www.inkscape.org/namespaces/inkscape" inkscape:connector-curvature="0" d="m-12 0v24h24v-24h-24"/>
      </g>
      <g id="g406" style="stroke-linejoin:bevel;stroke:#000000;stroke-linecap:square;fill:none" transform="matrix(1.184 0 0 1.184 136.16 249.83)">
        <path id="path408" xmlns:inkscape="http://www.inkscape.org/namespaces/inkscape" inkscape:connector-curvature="0" vector-effect="non-scaling-stroke" d="m8 14c0 4.4183-3.5817 8-8 8s-8-3.5817-8-8 3.5817-8 8-8 8 3.5817 8 8"/>
      </g>
      <g id="g410" style="stroke-linejoin:bevel;stroke:#000000;stroke-linecap:square;fill:none" transform="matrix(1.184 0 0 1.184 136.16 249.83)">
        <path id="path412" xmlns:inkscape="http://www.inkscape.org/namespaces/inkscape" inkscape:connector-curvature="0" vector-effect="non-scaling-stroke" d="m6 14c0 3.3137-2.6863 6-6 6s-6-2.6863-6-6 2.6863-6 6-6 6 2.6863 6 6"/>
      </g>
      <g id="g414" transform="matrix(1.184 0 0 1.184 136.16 249.83)" style="stroke-linejoin:miter;stroke:#000000;stroke-linecap:square;stroke-miterlimit:2;fill:none" stroke-miterlimit="2">
        <polyline id="polyline416" style="fill:none" points="-12 4 12 4" vector-effect="non-scaling-stroke"/>
      </g>
    </g></svg>