<?xml version="1.0" encoding="UTF-8"?>
<svg xmlns="http://www.w3.org/2000/svg" style="stroke-linejoin:bevel;stroke:#000000;stroke-linecap:square;fill:none" viewBox="60.75300216674805 246.64601135253906 32.41599655151367 32.41600036621094"><g id="g4555" font-size="11" font-weight="400">
      <g id="g182" style="stroke-linejoin:bevel;stroke:#000000;stroke-linecap:square;fill:#ffffff" transform="matrix(1.184 0 0 1.184 76.961 249.83)">
        <path id="path184" style="fill-rule:evenodd;fill:#ffffff" xmlns:inkscape="http://www.inkscape.org/namespaces/inkscape" inkscape:connector-curvature="0" d="m-12-1v24h24v-24h-24"/>
      </g>
      <g id="g178" transform="matrix(1.184 0 0 1.184 76.961 249.83)" style="stroke-linejoin:miter;stroke:#000000;stroke-linecap:square;stroke-miterlimit:2;fill:none" stroke-miterlimit="2">
        <polyline id="polyline180" style="fill:none" points="-2.3114 14.778 3.6885 8.7774" vector-effect="non-scaling-stroke"/>
      </g>
      <g id="g186" transform="matrix(1.184 0 0 1.184 76.961 249.83)" style="stroke-linejoin:miter;stroke:#000000;stroke-linecap:square;stroke-miterlimit:2;fill:none" stroke-miterlimit="2">
        <polyline id="polyline188" style="fill:none" points="-3.822 13.044 2.1779 7.0444" vector-effect="non-scaling-stroke"/>
      </g>
      <g id="g190" style="stroke-linejoin:bevel;stroke:#000000;stroke-linecap:square;fill:none" transform="matrix(1.184 0 0 1.184 76.961 249.83)">
        <path id="path192" xmlns:inkscape="http://www.inkscape.org/namespaces/inkscape" inkscape:connector-curvature="0" d="m9 11c0 4.9706-4.0294 9-9 9s-9-4.0294-9-9 4.0294-9 9-9 9 4.0294 9 9"/>
      </g>
      <g id="g194" transform="matrix(1.184 0 0 1.184 76.961 249.83)" style="stroke-linejoin:miter;stroke:#000000;stroke-linecap:square;stroke-miterlimit:2;fill:none" stroke-miterlimit="2">
        <polyline id="polyline196" style="fill:none" points="-4.2669 11.733 0.733 6.7329" vector-effect="non-scaling-stroke"/>
      </g>
      <g id="g202" style="stroke-linejoin:bevel;stroke:#000000;stroke-linecap:square;fill:none" transform="matrix(1.184 0 0 1.184 76.961 249.83)">
        <path id="path204" xmlns:inkscape="http://www.inkscape.org/namespaces/inkscape" inkscape:connector-curvature="0" vector-effect="non-scaling-stroke" d="m4.4721 11c0 2.4699-2.0022 4.4721-4.4721 4.4721s-4.4721-2.0022-4.4721-4.4721 2.0022-4.4721 4.4721-4.4721 4.4721 2.0022 4.4721 4.4721"/>
      </g>
      <g id="g206" transform="matrix(1.184 0 0 1.184 76.961 249.83)" style="stroke-linejoin:miter;stroke:#000000;stroke-linecap:square;stroke-miterlimit:2;fill:none" stroke-miterlimit="2">
        <polyline id="polyline208" style="fill:none" points="-4 9.9999 -0.9999 6.9999" vector-effect="non-scaling-stroke"/>
      </g>
      <g id="g210" transform="matrix(1.184 0 0 1.184 76.961 249.83)" style="stroke-linejoin:miter;stroke:#000000;stroke-linecap:square;stroke-miterlimit:2;fill:none" stroke-miterlimit="2">
        <polyline id="polyline212" style="fill:none" points="1 15 4 12" vector-effect="non-scaling-stroke"/>
      </g>
      <g id="g214" transform="matrix(1.184 0 0 1.184 76.961 249.83)" style="stroke-linejoin:miter;stroke:#000000;stroke-linecap:square;stroke-miterlimit:2;fill:none" stroke-miterlimit="2">
        <polyline id="polyline216" style="fill:none" points="-0.9999 15.044 4 10.044" vector-effect="non-scaling-stroke"/>
      </g>
      <g id="g218" transform="matrix(1.184 0 0 1.184 76.961 249.83)" style="stroke-linejoin:miter;stroke:#000000;stroke-linecap:square;stroke-miterlimit:2;fill:none" stroke-miterlimit="2">
        <polyline id="polyline220" style="fill:none" points="-3 14 3 7.9999" vector-effect="non-scaling-stroke"/>
      </g>
    </g></svg>