<?xml version="1.0" encoding="UTF-8"?>
<svg xmlns="http://www.w3.org/2000/svg" style="stroke-linejoin:bevel;stroke:#000000;stroke-linecap:square;fill:none" viewBox="63.121002197265625 318.8699951171875 27.68000030517578 27.67999267578125"><g id="g4577" font-size="11" font-weight="400">
      <g id="g418" transform="matrix(1.184 0 0 1.184 65.121 344.55)" style="stroke-linejoin:miter;stroke:#000000;stroke-linecap:square;stroke-miterlimit:2;fill:#ffffff" stroke-miterlimit="2">
        <path id="path420" style="fill-rule:evenodd;fill:#ffffff" xmlns:inkscape="http://www.inkscape.org/namespaces/inkscape" inkscape:connector-curvature="0" d="m0-20h20v20h-20v-20"/>
      </g>
      <g id="g422" style="stroke-linejoin:bevel;stroke:#000000;stroke-linecap:square;fill:none" transform="matrix(1.184 0 0 1.184 65.121 344.55)">
        <path id="path424" xmlns:inkscape="http://www.inkscape.org/namespaces/inkscape" inkscape:connector-curvature="0" d="m10-10c0 1.2426-1.567 2.25-3.5 2.25s-3.5-1.0074-3.5-2.25 1.567-2.25 3.5-2.25 3.5 1.0074 3.5 2.25"/>
      </g>
      <g id="g430" style="stroke-linejoin:bevel;stroke:#000000;stroke-linecap:square;fill:none" transform="matrix(1.184 0 0 1.184 65.121 344.55)">
        <path id="path432" xmlns:inkscape="http://www.inkscape.org/namespaces/inkscape" inkscape:connector-curvature="0" d="m17-10c0 1.2426-1.567 2.25-3.5 2.25s-3.5-1.0074-3.5-2.25 1.567-2.25 3.5-2.25 3.5 1.0074 3.5 2.25"/>
      </g>
    </g></svg>