<?xml version="1.0" encoding="UTF-8"?>
<svg xmlns="http://www.w3.org/2000/svg" style="stroke-linejoin:bevel;stroke:#000000;stroke-linecap:square;fill:none" viewBox="119.90228271484375 329.4762878417969 32.51545715332031 32.51544189453125"><g id="g4601">
      <g id="g4585" font-size="11" font-weight="400">
        <g id="g506" style="stroke-linejoin:bevel;stroke:#000000;stroke-linecap:square;fill:#ffffff" transform="matrix(1.184 0 0 1.184 136.16 332.71)">
          <path id="path508" style="fill-rule:evenodd;fill:#ffffff" xmlns:inkscape="http://www.inkscape.org/namespaces/inkscape" inkscape:connector-curvature="0" d="m12.042 11c0 6.6504-5.3912 12.042-12.042 12.042-6.6504 0-12.042-5.3912-12.042-12.042 0-6.6504 5.3912-12.042 12.042-12.042 6.6504 0 12.042 5.3912 12.042 12.042"/>
        </g>
        <g id="g486" transform="matrix(1.184 0 0 1.184 136.16 332.71)" style="stroke-linejoin:miter;stroke:#000000;stroke-linecap:square;stroke-miterlimit:2;fill:none" stroke-miterlimit="2">
          <polyline id="polyline488" style="fill:none" points="-10 17 10 17"/>
        </g>
        <g id="g490" transform="matrix(1.184 0 0 1.184 136.16 332.71)" style="stroke-linejoin:miter;stroke:#000000;stroke-linecap:square;stroke-miterlimit:2;fill:none" stroke-miterlimit="2">
          <polyline id="polyline492" style="fill:none" points="-10 5 10 5"/>
        </g>
        <g id="g494" transform="matrix(1.184 0 0 1.184 136.16 332.71)" style="stroke-linejoin:miter;stroke:#000000;stroke-linecap:square;stroke-miterlimit:2;fill:none" stroke-miterlimit="2">
          <polyline id="polyline496" style="fill:none" points="-11 14 11 14"/>
        </g>
        <g id="g498" transform="matrix(1.184 0 0 1.184 136.16 332.71)" style="stroke-linejoin:miter;stroke:#000000;stroke-linecap:square;stroke-miterlimit:2;fill:none" stroke-miterlimit="2">
          <polyline id="polyline500" style="fill:none" points="-11 8 11 8"/>
        </g>
        <g id="g502" transform="matrix(1.184 0 0 1.184 136.16 332.71)" style="stroke-linejoin:miter;stroke:#000000;stroke-linecap:square;stroke-miterlimit:2;fill:none" stroke-miterlimit="2">
          <polyline id="polyline504" style="fill:none" points="-12 11 12 11"/>
        </g>
      </g>
    </g></svg>