<?xml version="1.0" encoding="UTF-8"?>
<svg xmlns="http://www.w3.org/2000/svg" style="stroke-linejoin:bevel;stroke:#000000;stroke-linecap:square;fill:none" viewBox="453.8399963378906 530.7659912109375 33.015838623046875 34.1920166015625"><g id="g5843" font-size="11" font-weight="400">
      <g id="g5651" style="stroke-linejoin:bevel;stroke:#000000;stroke-linecap:square;fill:none" transform="matrix(1.184 0 0 1.184 467.68 539.87)">
        <path id="path5653" xmlns:inkscape="http://www.inkscape.org/namespaces/inkscape" inkscape:connector-curvature="0" d="m-10 19.5c0-5.5228 4.4772-10 10-10s10 4.4772 10 10"/>
      </g>
      <g id="g5655" transform="matrix(1.184 0 0 1.184 467.68 539.87)" style="stroke-linejoin:miter;stroke:#000000;stroke-linecap:square;stroke-miterlimit:2;fill:none" stroke-miterlimit="2">
        <polyline id="polyline5657" style="fill:none" points="0 9 0 -6"/>
      </g>
      <g id="g5659" style="stroke-linejoin:bevel;font-size:11px;font-weight:400;stroke:#000000;stroke-linecap:square;font-family:Ubuntu;fill:none" transform="matrix(1.184 0 0 1.184 480.71 542.24)">
        <text id="text5661" font-size="7" xml:space="preserve" style="font-size:7px;font-family:Sans Serif;font-weight:400;fill:#000000" y="9" x="0" font-weight="400">2</text>
      </g>
      <g id="g5663" transform="matrix(1.184 0 0 1.184 467.68 539.87)" style="stroke-linejoin:miter;stroke:#000000;stroke-linecap:square;stroke-miterlimit:2;fill:none" stroke-miterlimit="2">
        <polyline id="polyline5665" style="fill:none" points="10 9 2 15"/>
      </g>
      <g id="g5767" style="stroke-linejoin:bevel;stroke:#000000;stroke-linecap:square;fill:none" transform="matrix(1.184 0 0 1.184 467.68 539.87)">
        <path id="path5769" d="m-10 19.5c0-5.5228 4.4772-10 10-10s10 4.4772 10 10" xmlns:inkscape="http://www.inkscape.org/namespaces/inkscape" inkscape:connector-curvature="0"/>
      </g>
      <g id="g5771" style="stroke-linejoin:miter;stroke:#000000;stroke-linecap:square;stroke-miterlimit:2;fill:none" transform="matrix(1.184 0 0 1.184 467.68 539.87)" stroke-miterlimit="2">
        <polyline id="polyline5773" style="fill:none" points="0 9 0 -6"/>
      </g>
      <g id="g5775" style="stroke-linejoin:bevel;font-size:11px;font-weight:400;stroke:#000000;stroke-linecap:square;font-family:Ubuntu;fill:none" transform="matrix(1.184 0 0 1.184 480.71 542.24)">
        <text id="text5777" style="font-size:7px;font-family:Sans Serif;font-weight:400;fill:#000000" xml:space="preserve" font-size="7" y="9" x="0" font-weight="400">2</text>
      </g>
      <g id="g5779" style="stroke-linejoin:miter;stroke:#000000;stroke-linecap:square;stroke-miterlimit:2;fill:none" transform="matrix(1.184 0 0 1.184 467.68 539.87)" stroke-miterlimit="2">
        <polyline id="polyline5781" style="fill:none" points="10 9 2 15"/>
      </g>
    </g></svg>