<?xml version="1.0" encoding="UTF-8"?>
<svg xmlns="http://www.w3.org/2000/svg" style="stroke-linejoin:bevel;stroke:#000000;stroke-linecap:square;fill:none" viewBox="60.75300216674805 412.406005859375 32.41599655151367 40.704010009765625"><g id="g5869" font-size="11" font-weight="400">
      <g id="g566" style="stroke-linejoin:bevel;stroke:#000000;stroke-linecap:square;fill:none" transform="matrix(1.184 0 0 1.184 76.961 427.43)">
        <polyline id="polyline568" style="fill:none" points="-2 10 -9 20 -12 18"/>
      </g>
      <g id="g570" style="stroke-linejoin:bevel;stroke:#000000;stroke-linecap:square;fill:none" transform="matrix(1.184 0 0 1.184 76.961 427.43)">
        <polyline id="polyline572" style="fill:none" points="2 10 9 20 12 18"/>
      </g>
      <g id="g574" style="stroke-linejoin:bevel;stroke:#000000;stroke-linecap:square;fill:none" transform="matrix(1.184 0 0 1.184 76.961 427.43)">
        <polyline id="polyline576" style="fill:none" points="-2 0 -9 -11 -12 -9"/>
      </g>
      <g id="g578" style="stroke-linejoin:bevel;stroke:#000000;stroke-linecap:square;fill:none" transform="matrix(1.184 0 0 1.184 76.961 427.43)">
        <polyline id="polyline580" style="fill:none" points="2 0 9 -11 12 -9"/>
      </g>
      <g id="g582" style="stroke-linejoin:bevel;stroke:#000000;stroke-linecap:square;fill:#ffffff" transform="matrix(1.184 0 0 1.184 76.961 427.43)">
        <path id="path584" d="m5 5c0 2.7614-2.2386 5-5 5s-5-2.2386-5-5 2.2386-5 5-5 5 2.2386 5 5" style="fill:#ffffff" xmlns:inkscape="http://www.inkscape.org/namespaces/inkscape" inkscape:connector-curvature="0"/>
      </g>
    </g></svg>