<?xml version="1.0" encoding="UTF-8"?>
<svg xmlns="http://www.w3.org/2000/svg" style="stroke-linejoin:bevel;stroke:#000000;stroke-linecap:square;fill:none" viewBox="373.9200134277344 416.5500183105469 21.759979248046875 21.759979248046875"><g id="g5943" font-size="11" font-weight="400">
      <g id="g914" style="stroke-linejoin:bevel;stroke:#000000;stroke-linecap:square;fill:#ffffff" transform="matrix(1.184 0 0 1.184 384.8 427.43)">
        <path id="path916" d="m7.5 0c0 4.1421-3.3579 7.5-7.5 7.5s-7.5-3.3579-7.5-7.5 3.3579-7.5 7.5-7.5 7.5 3.3579 7.5 7.5" style="fill:#ffffff" xmlns:inkscape="http://www.inkscape.org/namespaces/inkscape" inkscape:connector-curvature="0"/>
      </g>
      <g id="g906" style="stroke-linejoin:miter;stroke:#000000;stroke-linecap:square;stroke-miterlimit:2;fill:none" transform="matrix(1.184 0 0 1.184 384.8 427.43)" stroke-miterlimit="2">
        <polyline id="polyline908" style="fill:none" points="-3 3 3 -3"/>
      </g>
      <g id="g910" style="stroke-linejoin:miter;stroke:#000000;stroke-linecap:square;stroke-miterlimit:2;fill:none" transform="matrix(1.184 0 0 1.184 384.8 427.43)" stroke-miterlimit="2">
        <polyline id="polyline912" style="fill:none" points="-3 -3 3 3"/>
      </g>
      <g id="g918" style="stroke-linejoin:bevel;stroke:#000000;stroke-linecap:square;fill:none" transform="matrix(1.184 0 0 1.184 384.8 427.43)">
        <path id="path920" d="m4.25 0c0 2.3472-1.9028 4.25-4.25 4.25s-4.25-1.9028-4.25-4.25 1.9028-4.25 4.25-4.25 4.25 1.9028 4.25 4.25" xmlns:inkscape="http://www.inkscape.org/namespaces/inkscape" inkscape:connector-curvature="0"/>
      </g>
    </g></svg>