<?xml version="1.0" encoding="UTF-8"?>
<svg xmlns="http://www.w3.org/2000/svg" style="stroke-linejoin:bevel;stroke:#000000;stroke-linecap:square;fill:none" viewBox="276.2400207519531 478.4700012207031 50.175994873046875 27.67999267578125"><g id="g6001" font-size="11" font-weight="400">
      <g id="g766" style="stroke-linejoin:miter;stroke:#000000;stroke-linecap:square;stroke-miterlimit:2;fill:none" transform="matrix(1.184 0 0 1.184 301.92 504.15)" stroke-miterlimit="2">
        <polyline id="polyline768" style="fill:none" points="-20 0 -11 0"/>
      </g>
      <g id="g770" style="stroke-linejoin:miter;stroke:#000000;stroke-linecap:square;stroke-miterlimit:2;fill:none" transform="matrix(1.184 0 0 1.184 301.92 504.15)" stroke-miterlimit="2">
        <polyline id="polyline772" style="fill:none" points="10 0 19 0"/>
      </g>
      <g id="g774" style="stroke-linejoin:bevel;stroke:#000000;stroke-linecap:square;fill:none" transform="matrix(1.184 0 0 1.184 301.92 504.15)">
        <path id="path776" d="m-10 0c0-5.5228 4.4772-10 10-10s10 4.4772 10 10" xmlns:inkscape="http://www.inkscape.org/namespaces/inkscape" inkscape:connector-curvature="0"/>
      </g>
      <g id="g778" style="stroke-linejoin:miter;stroke:#000000;stroke-linecap:square;stroke-miterlimit:2;fill:none" transform="matrix(1.184 0 0 1.184 301.92 504.15)" stroke-miterlimit="2">
        <polyline id="polyline780" style="fill:none" points="0 -10 0 -20"/>
      </g>
      <g id="g5495" transform="matrix(1.184 0 0 1.184 301.92 504.15)" style="stroke-linejoin:miter;stroke:#000000;stroke-linecap:square;stroke-miterlimit:2;fill:none" stroke-miterlimit="2">
        <polyline id="polyline5497" style="fill:none" points="-20 0 -11 0"/>
      </g>
      <g id="g5499" transform="matrix(1.184 0 0 1.184 301.92 504.15)" style="stroke-linejoin:miter;stroke:#000000;stroke-linecap:square;stroke-miterlimit:2;fill:none" stroke-miterlimit="2">
        <polyline id="polyline5501" style="fill:none" points="10 0 19 0"/>
      </g>
      <g id="g5503" style="stroke-linejoin:bevel;stroke:#000000;stroke-linecap:square;fill:none" transform="matrix(1.184 0 0 1.184 301.92 504.15)">
        <path id="path5505" xmlns:inkscape="http://www.inkscape.org/namespaces/inkscape" inkscape:connector-curvature="0" d="m-10 0c0-5.5228 4.4772-10 10-10s10 4.4772 10 10"/>
      </g>
      <g id="g5507" transform="matrix(1.184 0 0 1.184 301.92 504.15)" style="stroke-linejoin:miter;stroke:#000000;stroke-linecap:square;stroke-miterlimit:2;fill:none" stroke-miterlimit="2">
        <polyline id="polyline5509" style="fill:none" points="0 -10 0 -20"/>
      </g>
    </g></svg>