<?xml version="1.0" encoding="UTF-8"?>
<svg xmlns="http://www.w3.org/2000/svg" style="stroke-linejoin:bevel;stroke:#000000;stroke-linecap:square;fill:none" viewBox="228.8800048828125 478.4700012207031 28.284759521484375 27.67999267578125"><g id="g6019" font-size="11" font-weight="400">
      <g id="g746" style="stroke-linejoin:miter;stroke:#000000;stroke-linecap:square;stroke-miterlimit:2;fill:none" transform="matrix(1.184 0 0 1.184 242.72 504.15)" stroke-miterlimit="2">
        <polyline id="polyline748" style="fill:none" points="2 -7 7 -13"/>
      </g>
      <g id="g750" style="stroke-linejoin:bevel;stroke:#000000;stroke-linecap:square;fill:none" transform="matrix(1.184 0 0 1.184 242.72 504.15)">
        <path id="path752" d="m-10 0c0-5.5228 4.4772-10 10-10s10 4.4772 10 10" xmlns:inkscape="http://www.inkscape.org/namespaces/inkscape" inkscape:connector-curvature="0"/>
      </g>
      <g id="g754" style="stroke-linejoin:miter;stroke:#000000;stroke-linecap:square;stroke-miterlimit:2;fill:none" transform="matrix(1.184 0 0 1.184 242.72 504.15)" stroke-miterlimit="2">
        <polyline id="polyline756" style="fill:none" points="0 -10 0 -20"/>
      </g>
      <g id="g758" style="stroke-linejoin:bevel;font-size:11px;font-weight:400;stroke:#000000;stroke-linecap:square;font-family:Ubuntu;fill:none" transform="matrix(1.184 0 0 1.184 247.46 475.73)">
        <text id="text760" style="font-size:5px;font-family:Sans Serif;font-weight:400;fill:#000000" xml:space="preserve" font-size="5" y="11" x="4" font-weight="400">3</text>
      </g>
      <g id="g5479" transform="matrix(1.184 0 0 1.184 242.72 504.15)" style="stroke-linejoin:miter;stroke:#000000;stroke-linecap:square;stroke-miterlimit:2;fill:none" stroke-miterlimit="2">
        <polyline id="polyline5481" style="fill:none" points="2 -7 7 -13"/>
      </g>
      <g id="g5483" style="stroke-linejoin:bevel;stroke:#000000;stroke-linecap:square;fill:none" transform="matrix(1.184 0 0 1.184 242.72 504.15)">
        <path id="path5485" xmlns:inkscape="http://www.inkscape.org/namespaces/inkscape" inkscape:connector-curvature="0" d="m-10 0c0-5.5228 4.4772-10 10-10s10 4.4772 10 10"/>
      </g>
      <g id="g5487" transform="matrix(1.184 0 0 1.184 242.72 504.15)" style="stroke-linejoin:miter;stroke:#000000;stroke-linecap:square;stroke-miterlimit:2;fill:none" stroke-miterlimit="2">
        <polyline id="polyline5489" style="fill:none" points="0 -10 0 -20"/>
      </g>
      <g id="g5491" style="stroke-linejoin:bevel;font-size:11px;font-weight:400;stroke:#000000;stroke-linecap:square;font-family:Ubuntu;fill:none" transform="matrix(1.184 0 0 1.184 247.46 475.73)">
        <text id="text5493" font-size="5" xml:space="preserve" style="font-size:5px;font-family:Sans Serif;font-weight:400;fill:#000000" y="11" x="4" font-weight="400">3</text>
      </g>
    </g></svg>