<?xml version="1.0" encoding="UTF-8"?>
<svg xmlns="http://www.w3.org/2000/svg" style="stroke-linejoin:bevel;stroke:#000000;stroke-linecap:square;fill:none" viewBox="134.16000366210938 478.4700012207031 27.680007934570312 27.67999267578125"><g id="g6047" font-size="11" font-weight="400">
      <g id="g726" style="stroke-linejoin:miter;stroke:#000000;stroke-linecap:square;stroke-miterlimit:2;fill:none" transform="matrix(1.184 0 0 1.184 148 504.15)" stroke-miterlimit="2">
        <polyline id="polyline728" style="fill:none" points="-10 -10 10 -10"/>
      </g>
      <g id="g730" style="stroke-linejoin:bevel;stroke:#000000;stroke-linecap:square;fill:none" transform="matrix(1.184 0 0 1.184 148 504.15)">
        <path id="path732" d="m-10 0c0-5.5228 4.4772-10 10-10s10 4.4772 10 10" xmlns:inkscape="http://www.inkscape.org/namespaces/inkscape" inkscape:connector-curvature="0"/>
      </g>
      <g id="g734" style="stroke-linejoin:miter;stroke:#000000;stroke-linecap:square;stroke-miterlimit:2;fill:none" transform="matrix(1.184 0 0 1.184 148 504.15)" stroke-miterlimit="2">
        <polyline id="polyline736" style="fill:none" points="0 -10 0 -20"/>
      </g>
      <g id="g5459" transform="matrix(1.184 0 0 1.184 148 504.15)" style="stroke-linejoin:miter;stroke:#000000;stroke-linecap:square;stroke-miterlimit:2;fill:none" stroke-miterlimit="2">
        <polyline id="polyline5461" style="fill:none" points="-10 -10 10 -10"/>
      </g>
      <g id="g5463" style="stroke-linejoin:bevel;stroke:#000000;stroke-linecap:square;fill:none" transform="matrix(1.184 0 0 1.184 148 504.15)">
        <path id="path5465" xmlns:inkscape="http://www.inkscape.org/namespaces/inkscape" inkscape:connector-curvature="0" d="m-10 0c0-5.5228 4.4772-10 10-10s10 4.4772 10 10"/>
      </g>
      <g id="g5467" transform="matrix(1.184 0 0 1.184 148 504.15)" style="stroke-linejoin:miter;stroke:#000000;stroke-linecap:square;stroke-miterlimit:2;fill:none" stroke-miterlimit="2">
        <polyline id="polyline5469" style="fill:none" points="0 -10 0 -20"/>
      </g>
    </g></svg>