<?xml version="1.0" encoding="UTF-8"?>
<svg xmlns="http://www.w3.org/2000/svg" style="stroke-linejoin:bevel;stroke:#000000;stroke-linecap:square;fill:none" viewBox="63.121002197265625 470.1820068359375 51.36000061035156 35.968017578125"><g id="g6061" font-size="11" font-weight="400">
      <g id="g598" style="stroke-linejoin:miter;stroke:#000000;stroke-linecap:square;stroke-miterlimit:2;fill:none" transform="matrix(1.184 0 0 1.184 88.801 480.47)" stroke-miterlimit="2">
        <polyline id="polyline600" style="fill:none" points="20 20 10 20"/>
      </g>
      <g id="g602" style="stroke-linejoin:bevel;stroke:#000000;stroke-linecap:square;fill:none" transform="matrix(1.184 0 0 1.184 88.801 480.47)">
        <path id="path604" d="m-10 19.5c0-5.5228 4.4772-10 10-10s10 4.4772 10 10" xmlns:inkscape="http://www.inkscape.org/namespaces/inkscape" inkscape:connector-curvature="0"/>
      </g>
      <g id="g606" style="stroke-linejoin:miter;stroke:#000000;stroke-linecap:square;stroke-miterlimit:2;fill:none" transform="matrix(1.184 0 0 1.184 88.801 480.47)" stroke-miterlimit="2">
        <polyline id="polyline608" style="fill:none" points="0 8 0 -7"/>
      </g>
      <g id="g610" style="stroke-linejoin:miter;stroke:#000000;stroke-linecap:square;stroke-miterlimit:2;fill:none" transform="matrix(1.184 0 0 1.184 88.801 480.47)" stroke-miterlimit="2">
        <polyline id="polyline612" style="fill:none" points="-10 9 10 9"/>
      </g>
      <g id="g614" style="stroke-linejoin:miter;stroke:#000000;stroke-linecap:square;stroke-miterlimit:2;fill:none" transform="matrix(1.184 0 0 1.184 88.801 480.47)" stroke-miterlimit="2">
        <polyline id="polyline616" style="fill:none" points="-10 20 -20 20"/>
      </g>
      <g id="g5439" transform="matrix(1.184 0 0 1.184 88.801 480.47)" style="stroke-linejoin:miter;stroke:#000000;stroke-linecap:square;stroke-miterlimit:2;fill:none" stroke-miterlimit="2">
        <polyline id="polyline5441" style="fill:none" points="20 20 10 20"/>
      </g>
      <g id="g5443" style="stroke-linejoin:bevel;stroke:#000000;stroke-linecap:square;fill:none" transform="matrix(1.184 0 0 1.184 88.801 480.47)">
        <path id="path5445" xmlns:inkscape="http://www.inkscape.org/namespaces/inkscape" inkscape:connector-curvature="0" d="m-10 19.5c0-5.5228 4.4772-10 10-10s10 4.4772 10 10"/>
      </g>
      <g id="g5447" transform="matrix(1.184 0 0 1.184 88.801 480.47)" style="stroke-linejoin:miter;stroke:#000000;stroke-linecap:square;stroke-miterlimit:2;fill:none" stroke-miterlimit="2">
        <polyline id="polyline5449" style="fill:none" points="0 8 0 -7"/>
      </g>
      <g id="g5451" transform="matrix(1.184 0 0 1.184 88.801 480.47)" style="stroke-linejoin:miter;stroke:#000000;stroke-linecap:square;stroke-miterlimit:2;fill:none" stroke-miterlimit="2">
        <polyline id="polyline5453" style="fill:none" points="-10 9 10 9"/>
      </g>
      <g id="g5455" transform="matrix(1.184 0 0 1.184 88.801 480.47)" style="stroke-linejoin:miter;stroke:#000000;stroke-linecap:square;stroke-miterlimit:2;fill:none" stroke-miterlimit="2">
        <polyline id="polyline5457" style="fill:none" points="-10 20 -20 20"/>
      </g>
    </g></svg>