<?xml version="1.0" encoding="UTF-8"?>
<svg xmlns="http://www.w3.org/2000/svg" style="stroke-linejoin:bevel;stroke:#000000;stroke-linecap:square;fill:none" viewBox="63.121002197265625 529.58203125 51.36000061035156 35.96795654296875"><g id="g6083" font-size="11" font-weight="400">
      <g id="g5675" style="stroke-linejoin:bevel;stroke:#000000;stroke-linecap:square;fill:none" transform="matrix(1.184 0 0 1.184 88.801 539.87)">
        <path id="path5677" d="m-10 19.5c0-5.5228 4.4772-10 10-10s10 4.4772 10 10" xmlns:inkscape="http://www.inkscape.org/namespaces/inkscape" inkscape:connector-curvature="0"/>
      </g>
      <g id="g5795" style="stroke-linejoin:bevel;stroke:#000000;stroke-linecap:square;fill:none" transform="matrix(1.184 0 0 1.184 88.801 531.87)">
        <path id="path5797" xmlns:inkscape="http://www.inkscape.org/namespaces/inkscape" inkscape:connector-curvature="0" d="m-10 19.5c0-5.5228 4.4772-10 10-10s10 4.4772 10 10"/>
      </g>
      <g id="g5555" transform="matrix(1.184 0 0 1.184 88.801 539.87)" style="stroke-linejoin:miter;stroke:#000000;stroke-linecap:square;stroke-miterlimit:2;fill:none" stroke-miterlimit="2">
        <polyline id="polyline5557" style="fill:none" points="20 20 10 20"/>
      </g>
      <g id="g5559" style="stroke-linejoin:bevel;stroke:#000000;stroke-linecap:square;fill:none" transform="matrix(1.184 0 0 1.184 88.801 539.87)">
        <path id="path5561" xmlns:inkscape="http://www.inkscape.org/namespaces/inkscape" inkscape:connector-curvature="0" d="m-10 19.5c0-5.5228 4.4772-10 10-10s10 4.4772 10 10"/>
      </g>
      <g id="g5563" transform="matrix(1.184 0 0 1.184 88.801 539.87)" style="stroke-linejoin:miter;stroke:#000000;stroke-linecap:square;stroke-miterlimit:2;fill:none" stroke-miterlimit="2">
        <polyline id="polyline5565" style="fill:none" points="0 8 0 -7"/>
      </g>
      <g id="g5571" transform="matrix(1.184 0 0 1.184 88.801 539.87)" style="stroke-linejoin:miter;stroke:#000000;stroke-linecap:square;stroke-miterlimit:2;fill:none" stroke-miterlimit="2">
        <polyline id="polyline5573" style="fill:none" points="-10 20 -20 20"/>
      </g>
      <g id="g5671" style="stroke-linejoin:miter;stroke:#000000;stroke-linecap:square;stroke-miterlimit:2;fill:none" transform="matrix(1.184 0 0 1.184 88.801 539.87)" stroke-miterlimit="2">
        <polyline id="polyline5673" style="fill:none" points="20 20 10 20"/>
      </g>
      <g id="g5679" style="stroke-linejoin:miter;stroke:#000000;stroke-linecap:square;stroke-miterlimit:2;fill:none" transform="matrix(1.184 0 0 1.184 88.801 539.87)" stroke-miterlimit="2">
        <polyline id="polyline5681" style="fill:none" points="0 8 0 -7"/>
      </g>
      <g id="g5683" style="stroke-linejoin:miter;stroke:#000000;stroke-linecap:square;stroke-miterlimit:2;fill:none" transform="matrix(1.184 0 0 1.184 88.801 531.87)" stroke-miterlimit="2">
        <polyline id="polyline5685" style="fill:none" points="-10 9 10 9"/>
      </g>
      <g id="g5687" style="stroke-linejoin:miter;stroke:#000000;stroke-linecap:square;stroke-miterlimit:2;fill:none" transform="matrix(1.184 0 0 1.184 88.801 539.87)" stroke-miterlimit="2">
        <polyline id="polyline5689" style="fill:none" points="-10 20 -20 20"/>
      </g>
      <g id="g5783" style="stroke-linejoin:miter;stroke:#000000;stroke-linecap:square;stroke-miterlimit:2;fill:none" transform="matrix(1.184 0 0 1.184 88.801 531.87)" stroke-miterlimit="2">
        <polyline id="polyline5785" style="fill:none" points="20 20 10 20"/>
      </g>
      <g id="g5787" style="stroke-linejoin:miter;stroke:#000000;stroke-linecap:square;stroke-miterlimit:2;fill:none" transform="matrix(1.184 0 0 1.184 88.801 531.87)" stroke-miterlimit="2">
        <polyline id="polyline5789" style="fill:none" points="-10 20 -20 20"/>
      </g>
      <g id="g5791" transform="matrix(1.184 0 0 1.184 88.801 531.87)" style="stroke-linejoin:miter;stroke:#000000;stroke-linecap:square;stroke-miterlimit:2;fill:none" stroke-miterlimit="2">
        <polyline id="polyline5793" style="fill:none" points="20 20 10 20"/>
      </g>
      <g id="g5799" transform="matrix(1.184 0 0 1.184 88.801 531.87)" style="stroke-linejoin:miter;stroke:#000000;stroke-linecap:square;stroke-miterlimit:2;fill:none" stroke-miterlimit="2">
        <polyline id="polyline5801" style="fill:none" points="-10 20 -20 20"/>
      </g>
    </g></svg>