<?xml version="1.0" encoding="UTF-8"?>
<svg xmlns="http://www.w3.org/2000/svg" style="stroke-linejoin:bevel;stroke:#000000;stroke-linecap:square;fill:none" viewBox="181.52000427246094 537.8699951171875 27.680007934570312 27.67999267578125"><g id="g6129" font-size="11" font-weight="400">
      <g id="g5587" style="stroke-linejoin:bevel;stroke:#000000;stroke-linecap:square;fill:none" transform="matrix(1.184 0 0 1.184 195.36 563.55)">
        <path id="path5589" xmlns:inkscape="http://www.inkscape.org/namespaces/inkscape" inkscape:connector-curvature="0" d="m-10 0c0-5.5228 4.4772-10 10-10s10 4.4772 10 10"/>
      </g>
      <g id="g5591" transform="matrix(1.184 0 0 1.184 195.36 563.55)" style="stroke-linejoin:miter;stroke:#000000;stroke-linecap:square;stroke-miterlimit:2;fill:none" stroke-miterlimit="2">
        <polyline id="polyline5593" style="fill:none" points="0 -10 0 -20"/>
      </g>
      <g id="g5703" style="stroke-linejoin:bevel;stroke:#000000;stroke-linecap:square;fill:none" transform="matrix(1.184 0 0 1.184 195.36 563.55)">
        <path id="path5705" d="m-10 0c0-5.5228 4.4772-10 10-10s10 4.4772 10 10" xmlns:inkscape="http://www.inkscape.org/namespaces/inkscape" inkscape:connector-curvature="0"/>
      </g>
      <g id="g5707" style="stroke-linejoin:miter;stroke:#000000;stroke-linecap:square;stroke-miterlimit:2;fill:none" transform="matrix(1.184 0 0 1.184 195.36 563.55)" stroke-miterlimit="2">
        <polyline id="polyline5709" style="fill:none" points="0 -10 0 -20"/>
      </g>
      <g id="g5807" style="stroke-linejoin:bevel;stroke:#000000;stroke-linecap:square;fill:none" transform="matrix(1.184 0 0 1.184 195.36 557.55)">
        <path id="path5809" xmlns:inkscape="http://www.inkscape.org/namespaces/inkscape" inkscape:connector-curvature="0" d="m-10 0c0-5.5228 4.4772-10 10-10s10 4.4772 10 10"/>
      </g>
    </g></svg>