<?xml version="1.0" encoding="UTF-8"?>
<svg xmlns="http://www.w3.org/2000/svg" style="stroke-linejoin:bevel;stroke:#000000;stroke-linecap:square;fill:none" viewBox="228.8800048828125 537.8699951171875 28.649337768554688 27.67999267578125"><g id="g6141" font-size="11" font-weight="400">
      <g id="g5595" transform="matrix(1.184 0 0 1.184 242.72 563.55)" style="stroke-linejoin:miter;stroke:#000000;stroke-linecap:square;stroke-miterlimit:2;fill:none" stroke-miterlimit="2">
        <polyline id="polyline5597" style="fill:none" points="2 -7 7 -13"/>
      </g>
      <g id="g5599" style="stroke-linejoin:bevel;stroke:#000000;stroke-linecap:square;fill:none" transform="matrix(1.184 0 0 1.184 242.72 563.55)">
        <path id="path5601" xmlns:inkscape="http://www.inkscape.org/namespaces/inkscape" inkscape:connector-curvature="0" d="m-10 0c0-5.5228 4.4772-10 10-10s10 4.4772 10 10"/>
      </g>
      <g id="g5603" transform="matrix(1.184 0 0 1.184 242.72 563.55)" style="stroke-linejoin:miter;stroke:#000000;stroke-linecap:square;stroke-miterlimit:2;fill:none" stroke-miterlimit="2">
        <polyline id="polyline5605" style="fill:none" points="0 -10 0 -20"/>
      </g>
      <g id="g5607" style="stroke-linejoin:bevel;font-size:11px;font-weight:400;stroke:#000000;stroke-linecap:square;font-family:Ubuntu;fill:none" transform="matrix(1.184 0 0 1.184 247.46 535.14)">
        <text id="text5609" font-size="5" xml:space="preserve" style="font-size:5px;font-family:Sans Serif;font-weight:400;fill:#000000" y="11" x="4" font-weight="400">2</text>
      </g>
      <g id="g5711" style="stroke-linejoin:miter;stroke:#000000;stroke-linecap:square;stroke-miterlimit:2;fill:none" transform="matrix(1.184 0 0 1.184 242.72 563.55)" stroke-miterlimit="2">
        <polyline id="polyline5713" style="fill:none" points="2 -7 7 -13"/>
      </g>
      <g id="g5715" style="stroke-linejoin:bevel;stroke:#000000;stroke-linecap:square;fill:none" transform="matrix(1.184 0 0 1.184 242.72 563.55)">
        <path id="path5717" d="m-10 0c0-5.5228 4.4772-10 10-10s10 4.4772 10 10" xmlns:inkscape="http://www.inkscape.org/namespaces/inkscape" inkscape:connector-curvature="0"/>
      </g>
      <g id="g5719" style="stroke-linejoin:miter;stroke:#000000;stroke-linecap:square;stroke-miterlimit:2;fill:none" transform="matrix(1.184 0 0 1.184 242.72 563.55)" stroke-miterlimit="2">
        <polyline id="polyline5721" style="fill:none" points="0 -10 0 -20"/>
      </g>
    </g></svg>