<?xml version="1.0" encoding="UTF-8"?>
<svg xmlns="http://www.w3.org/2000/svg" style="stroke-linejoin:bevel;stroke:#000000;stroke-linecap:square;fill:none" viewBox="276.2400207519531 537.8699951171875 50.175994873046875 27.67999267578125"><g id="g6157" font-size="11" font-weight="400">
      <g id="g5611" transform="matrix(1.184 0 0 1.184 301.92 563.55)" style="stroke-linejoin:miter;stroke:#000000;stroke-linecap:square;stroke-miterlimit:2;fill:none" stroke-miterlimit="2">
        <polyline id="polyline5613" style="fill:none" points="-20 0 -11 0"/>
      </g>
      <g id="g5615" transform="matrix(1.184 0 0 1.184 301.92 563.55)" style="stroke-linejoin:miter;stroke:#000000;stroke-linecap:square;stroke-miterlimit:2;fill:none" stroke-miterlimit="2">
        <polyline id="polyline5617" style="fill:none" points="10 0 19 0"/>
      </g>
      <g id="g5619" style="stroke-linejoin:bevel;stroke:#000000;stroke-linecap:square;fill:none" transform="matrix(1.184 0 0 1.184 301.92 563.55)">
        <path id="path5621" xmlns:inkscape="http://www.inkscape.org/namespaces/inkscape" inkscape:connector-curvature="0" d="m-10 0c0-5.5228 4.4772-10 10-10s10 4.4772 10 10"/>
      </g>
      <g id="g5623" transform="matrix(1.184 0 0 1.184 301.92 563.55)" style="stroke-linejoin:miter;stroke:#000000;stroke-linecap:square;stroke-miterlimit:2;fill:none" stroke-miterlimit="2">
        <polyline id="polyline5625" style="fill:none" points="0 -10 0 -20"/>
      </g>
      <g id="g5727" style="stroke-linejoin:miter;stroke:#000000;stroke-linecap:square;stroke-miterlimit:2;fill:none" transform="matrix(1.184 0 0 1.184 301.92 563.55)" stroke-miterlimit="2">
        <polyline id="polyline5729" style="fill:none" points="-20 0 -11 0"/>
      </g>
      <g id="g5731" style="stroke-linejoin:miter;stroke:#000000;stroke-linecap:square;stroke-miterlimit:2;fill:none" transform="matrix(1.184 0 0 1.184 301.92 563.55)" stroke-miterlimit="2">
        <polyline id="polyline5733" style="fill:none" points="10 0 19 0"/>
      </g>
      <g id="g5735" style="stroke-linejoin:bevel;stroke:#000000;stroke-linecap:square;fill:none" transform="matrix(1.184 0 0 1.184 301.92 563.55)">
        <path id="path5737" d="m-10 0c0-5.5228 4.4772-10 10-10s10 4.4772 10 10" xmlns:inkscape="http://www.inkscape.org/namespaces/inkscape" inkscape:connector-curvature="0"/>
      </g>
      <g id="g5739" style="stroke-linejoin:miter;stroke:#000000;stroke-linecap:square;stroke-miterlimit:2;fill:none" transform="matrix(1.184 0 0 1.184 301.92 563.55)" stroke-miterlimit="2">
        <polyline id="polyline5741" style="fill:none" points="0 -10 0 -20"/>
      </g>
      <g id="g5811" style="stroke-linejoin:miter;stroke:#000000;stroke-linecap:square;stroke-miterlimit:2;fill:none" transform="matrix(1.184 0 0 1.184 301.92 557.55)" stroke-miterlimit="2">
        <polyline id="polyline5813" style="fill:none" points="-20 0 -11 0"/>
      </g>
      <g id="g5815" style="stroke-linejoin:miter;stroke:#000000;stroke-linecap:square;stroke-miterlimit:2;fill:none" transform="matrix(1.184 0 0 1.184 301.92 557.55)" stroke-miterlimit="2">
        <polyline id="polyline5817" style="fill:none" points="10 0 19 0"/>
      </g>
      <g id="g5819" style="stroke-linejoin:bevel;stroke:#000000;stroke-linecap:square;fill:none" transform="matrix(1.184 0 0 1.184 301.92 557.55)">
        <path id="path5821" d="m-10 0c0-5.5228 4.4772-10 10-10s10 4.4772 10 10" xmlns:inkscape="http://www.inkscape.org/namespaces/inkscape" inkscape:connector-curvature="0"/>
      </g>
      <g id="g5823" transform="matrix(1.184 0 0 1.184 301.92 557.55)" style="stroke-linejoin:miter;stroke:#000000;stroke-linecap:square;stroke-miterlimit:2;fill:none" stroke-miterlimit="2">
        <polyline id="polyline5825" style="fill:none" points="-20 0 -11 0"/>
      </g>
      <g id="g5827" transform="matrix(1.184 0 0 1.184 301.92 557.55)" style="stroke-linejoin:miter;stroke:#000000;stroke-linecap:square;stroke-miterlimit:2;fill:none" stroke-miterlimit="2">
        <polyline id="polyline5829" style="fill:none" points="10 0 19 0"/>
      </g>
      <g id="g5831" style="stroke-linejoin:bevel;stroke:#000000;stroke-linecap:square;fill:none" transform="matrix(1.184 0 0 1.184 301.92 557.55)">
        <path id="path5833" xmlns:inkscape="http://www.inkscape.org/namespaces/inkscape" inkscape:connector-curvature="0" d="m-10 0c0-5.5228 4.4772-10 10-10s10 4.4772 10 10"/>
      </g>
    </g></svg>