<?xml version="1.0" encoding="UTF-8"?>
<svg xmlns="http://www.w3.org/2000/svg" style="stroke-linejoin:bevel;stroke:#000000;stroke-linecap:square;fill:none" viewBox="370.9599914550781 590.7740478515625 38.33599853515625 37.1519775390625"><g id="g6260" font-size="11" font-weight="400">
      <g id="g858" style="stroke-linejoin:bevel;stroke:#000000;stroke-linecap:square;fill:#ffffff" transform="matrix(1.184 0 0 1.184 384.8 621.19)">
        <path id="path860" d="m4.5-10c0 2.4853-2.0147 4.5-4.5 4.5s-4.5-2.0147-4.5-4.5 2.0147-4.5 4.5-4.5 4.5 2.0147 4.5 4.5" style="fill:#ffffff" xmlns:inkscape="http://www.inkscape.org/namespaces/inkscape" inkscape:connector-curvature="0"/>
      </g>
      <g id="g838" style="stroke-linejoin:miter;stroke:#000000;stroke-linecap:square;stroke-miterlimit:2;fill:#000000" transform="matrix(1.184 0 0 1.184 384.8 621.19)" stroke-miterlimit="2">
        <path id="path840" d="m17.586 2.5858-1.414 1.4142h2.828v-2.8284l-1.414 1.4142" style="fill-rule:evenodd" xmlns:inkscape="http://www.inkscape.org/namespaces/inkscape" inkscape:connector-curvature="0"/>
        <polyline id="polyline842" style="fill:none" points="17.586 2.5858 8 -7"/>
      </g>
      <g id="g844" style="stroke-linejoin:miter;stroke:#000000;stroke-linecap:square;stroke-miterlimit:2;fill:#000000" transform="matrix(1.184 0 0 1.184 384.8 621.19)" stroke-miterlimit="2">
        <path id="path846" d="m17.586-22.586 1.414 1.414v-2.828h-2.8284l1.4142 1.4142" style="fill-rule:evenodd" xmlns:inkscape="http://www.inkscape.org/namespaces/inkscape" inkscape:connector-curvature="0"/>
        <polyline id="polyline848" style="fill:none" points="8 -13 17.586 -22.586"/>
      </g>
      <g id="g850" style="stroke-linejoin:miter;stroke:#000000;stroke-linecap:square;stroke-miterlimit:2;fill:none" transform="matrix(1.184 0 0 1.184 384.8 621.19)" stroke-miterlimit="2">
        <polyline id="polyline852" style="fill:none" points="-3 -13 3 -7"/>
      </g>
      <g id="g854" style="stroke-linejoin:miter;stroke:#000000;stroke-linecap:square;stroke-miterlimit:2;fill:none" transform="matrix(1.184 0 0 1.184 384.8 621.19)" stroke-miterlimit="2">
        <polyline id="polyline856" style="fill:none" points="-3 -7 3 -13"/>
      </g>
      <g id="g862" style="stroke-linejoin:bevel;stroke:#000000;stroke-linecap:square;fill:none" transform="matrix(1.184 0 0 1.184 384.8 621.19)">
        <path id="path864" d="m0 0c-5.5228 0-10-4.4772-10-10s4.4772-10 10-10" xmlns:inkscape="http://www.inkscape.org/namespaces/inkscape" inkscape:connector-curvature="0"/>
      </g>
    </g></svg>