<?xml version="1.0" encoding="UTF-8"?>
<svg xmlns="http://www.w3.org/2000/svg" style="stroke-linejoin:bevel;stroke:#000000;stroke-linecap:square;fill:none" viewBox="264.3999938964844 595.510009765625 21.167999267578125 27.67999267578125"><g id="g6292" font-size="11" font-weight="400">
      <g id="g802" style="stroke-linejoin:bevel;stroke:#000000;stroke-linecap:square;fill:#ffffff" transform="matrix(1.184 0 0 1.184 278.24 621.19)">
        <path id="path804" d="m4.5-10c0 2.4853-2.0147 4.5-4.5 4.5s-4.5-2.0147-4.5-4.5 2.0147-4.5 4.5-4.5 4.5 2.0147 4.5 4.5" style="fill:#ffffff" xmlns:inkscape="http://www.inkscape.org/namespaces/inkscape" inkscape:connector-curvature="0"/>
      </g>
      <g id="g794" style="stroke-linejoin:miter;stroke:#000000;stroke-linecap:square;stroke-miterlimit:2;fill:none" transform="matrix(1.184 0 0 1.184 278.24 621.19)" stroke-miterlimit="2">
        <polyline id="polyline796" style="fill:none" points="-3 -13 3 -7"/>
      </g>
      <g id="g798" style="stroke-linejoin:miter;stroke:#000000;stroke-linecap:square;stroke-miterlimit:2;fill:none" transform="matrix(1.184 0 0 1.184 278.24 621.19)" stroke-miterlimit="2">
        <polyline id="polyline800" style="fill:none" points="-3 -7 3 -13"/>
      </g>
      <g id="g806" style="stroke-linejoin:bevel;stroke:#000000;stroke-linecap:square;fill:none" transform="matrix(1.184 0 0 1.184 278.24 621.19)">
        <path id="path808" d="m0 0c-5.5228 0-10-4.4772-10-10s4.4772-10 10-10" xmlns:inkscape="http://www.inkscape.org/namespaces/inkscape" inkscape:connector-curvature="0"/>
      </g>
    </g></svg>