<?xml version="1.0" encoding="UTF-8"?>
<svg xmlns="http://www.w3.org/2000/svg" style="stroke-linejoin:bevel;stroke:#000000;stroke-linecap:square;fill:none" viewBox="63.121002197265625 650.3900146484375 39.519996643066406 15.84002685546875"><g id="g6328" font-size="11" font-weight="400">
      <g id="g1110" style="stroke-linejoin:bevel;stroke:#000000;stroke-linecap:square;fill:#ffffff" transform="matrix(1.184 0 0 1.184 76.961 676.07)">
        <path id="path1112" d="m10-10h10l-10-10v10" style="fill:#ffffff" xmlns:inkscape="http://www.inkscape.org/namespaces/inkscape" inkscape:connector-curvature="0"/>
      </g>
      <g id="g1114" style="stroke-linejoin:miter;stroke:#000000;stroke-linecap:square;stroke-miterlimit:2;fill:none" transform="matrix(1.184 0 0 1.184 76.961 676.07)" stroke-miterlimit="2">
        <path id="path1116" d="m-10-20h20v10h-20v-10" style="fill:#ffffff" xmlns:inkscape="http://www.inkscape.org/namespaces/inkscape" inkscape:connector-curvature="0"/>
      </g>
      <g id="g1118" style="stroke-linejoin:bevel;stroke:#000000;stroke-linecap:square;fill:none" transform="matrix(1.184 0 0 1.184 76.961 676.07)">
        <path id="path1120" d="m-5-14c0-1.3807 1.1193-2.5 2.5-2.5s2.5 1.1193 2.5 2.5" xmlns:inkscape="http://www.inkscape.org/namespaces/inkscape" inkscape:connector-curvature="0"/>
      </g>
      <g id="g1122" style="stroke-linejoin:bevel;stroke:#000000;stroke-linecap:square;fill:none" transform="matrix(1.184 0 0 1.184 76.961 676.07)">
        <path id="path1124" d="m0-14c0-1.3807 1.1193-2.5 2.5-2.5s2.5 1.1193 2.5 2.5" xmlns:inkscape="http://www.inkscape.org/namespaces/inkscape" inkscape:connector-curvature="0"/>
      </g>
    </g></svg>