<?xml version="1.0" encoding="UTF-8"?>
<svg xmlns="http://www.w3.org/2000/svg" style="stroke-linejoin:bevel;stroke:#000000;stroke-linecap:square;fill:none" viewBox="440 603.5780029296875 56.66363525390625 11.10400390625"><g id="g6354">
      <g id="g6402" font-size="11" font-weight="400" stroke-miterlimit="2">
        <g id="g6356" style="stroke-linejoin:miter;stroke:#000000;stroke-linecap:square;stroke-miterlimit:2;fill:none" transform="matrix(1.184 0 0 1.184 454.15 620.97)">
          <polyline id="polyline6358" style="fill:none" points="0 -13 0 -7"/>
        </g>
        <g id="g6360" style="stroke-linejoin:miter;stroke:#000000;stroke-linecap:square;stroke-miterlimit:2;fill:none" transform="matrix(1.184 0 0 1.184 411.47 620.97)">
          <polyline id="polyline6362" style="fill:none" points="60 -13 60 -7"/>
        </g>
        <g id="g6364" style="stroke-linejoin:miter;stroke:#000000;stroke-linecap:square;stroke-miterlimit:2;fill:none" transform="matrix(.20206 0 0 7.528 442 684.63)">
          <polyline id="polyline6366" style="fill:none" points="0 -10 60 -10"/>
        </g>
        <g id="g6386" transform="matrix(.20206 0 0 7.528 482.54 684.41)" style="stroke-linejoin:miter;stroke:#000000;stroke-linecap:square;stroke-miterlimit:2;fill:none">
          <polyline id="polyline6388" style="fill:none" points="0 -10 60 -10"/>
        </g>
        <g id="g6390" transform="matrix(1.184 0 0 1.184 386.31 620.97)" style="stroke-linejoin:miter;stroke:#000000;stroke-linecap:square;stroke-miterlimit:2;fill:none">
          <polyline id="polyline6392" style="fill:none" points="60 -13 60 -7"/>
        </g>
        <g id="g6394" style="stroke-linejoin:miter;stroke:#000000;stroke-linecap:square;stroke-miterlimit:2;fill:none" transform="matrix(.33765 0 0 3.9187 458.12 648.32)">
          <polyline id="polyline6396" style="fill:none" points="0 -10 60 -10"/>
        </g>
        <g id="g6398" transform="matrix(1.184 0 0 1.184 407.98 620.97)" style="stroke-linejoin:miter;stroke:#000000;stroke-linecap:square;stroke-miterlimit:2;fill:none">
          <polyline id="polyline6400" style="fill:none" points="60 -13 60 -7"/>
        </g>
      </g>
    </g></svg>